<svg xmlns="http://www.w3.org/2000/svg" width="237.433" height="237.433" viewBox="0 0 237.433 237.433">
  <g id="fédération" transform="translate(0 -0.056)">
    <g id="home-03B-Copy-59" transform="translate(0 0.056)">
      <g id="Header" transform="translate(0 0)">
        <g id="v2" transform="translate(0)">
          <g id="FSEH_Logo" transform="translate(0 0)">
            <g id="Groupe_1" data-name="Groupe 1" transform="translate(0 0)">
              <g id="Group-5" transform="translate(1.512 1.2)">
                <path id="Fill-1" d="M101.82,6.122,93.978.051,45.68,62.117,101.82,6.122" transform="translate(9.085 -0.051)" fill="#fffffe" fill-rule="evenodd"/>
                <path id="Fill-3" d="M200.408,101.353l6.087-7.822L144.27,45.359l56.138,55.994" transform="translate(29.353 9.264)" fill="#fffffe" fill-rule="evenodd"/>
                <path id="Fill-4" d="M6.341,103.42.254,111.242l62.227,48.172L6.341,103.42" transform="translate(-0.254 21.2)" fill="#fffffe" fill-rule="evenodd"/>
              </g>
              <g id="Group-9">
                <path id="Fill-6" d="M104.288,200.746l7.833,6.079,48.238-62.151-56.071,56.072" transform="translate(21.44 29.676)" fill="#fffffe" fill-rule="evenodd"/>
                <path id="Fill-8" d="M237.433,118.772,118.717,237.489,0,118.772,118.717.056,237.433,118.772" transform="translate(0 -0.056)" fill="#d8232a" fill-rule="evenodd"/>
              </g>
              <g id="Group-14" transform="translate(0 15.689)">
                <path id="Fill-10" d="M97.729,146.011H88.915v-8.967H79.785v8.967H70.971v8.813h8.815v8.967h9.129v-8.967h8.814v-8.813" transform="translate(14.59 28.09)" fill="#fffffe" fill-rule="evenodd"/>
                <path id="Fill-13" d="M182.487,40.311a205.928,205.928,0,0,0-40.532,22.952,7.211,7.211,0,0,0-.67,2.109,27.233,27.233,0,0,1-1.151,3.924,60,60,0,0,1-5.164,10.939l-.221.361-.383.181c-2.666,1.259-7.567,6.707-10.512,11.681l-.433.92-1.012-.117c-.246-.029-2.39-.28-3.135-.436-3.939-.655-7.1-1.763-9.71-5.019a34.735,34.735,0,0,1-2.25-3.2,13.183,13.183,0,0,0-1.365-1.906,5.618,5.618,0,0,0-1.131-.826,6.875,6.875,0,0,0-1.522-.494,4.081,4.081,0,0,0-.476-.028,7.258,7.258,0,0,0-4.577,2.134l-.7.608-.837-.394c-2.956-1.39-4.292-4-4.763-9.326-.377-4.253-3.864-7.437-6.735-8.872l-.482-.241-.2-.5C83.5,62.2,82.44,59.724,81.586,57.738c-.9-2.1-1.383-3.222-1.554-3.77a4.192,4.192,0,0,0-1.94-2.018c-.576-.337-1.2-.7-1.86-1.1A188.506,188.506,0,0,0,55.4,39.862L0,95.236l60.754,60.73a2.208,2.208,0,0,1,.2-.654c0-.059-.014-.139-.022-.2a3.611,3.611,0,0,1-.035-.7,2.07,2.07,0,0,1,1.006-2.5c.928-.685,6.62-6.79,7.19-8.37l.028-.078.037-.074c.05-.1.089-.192.125-.277a2.021,2.021,0,0,1,1.847-1.438,2.428,2.428,0,0,1,.835.161l.067.025a4.987,4.987,0,0,0,1.69.37,2.041,2.041,0,0,0,1.433-.519l.073-.064.081-.054a3.07,3.07,0,0,1,1.662-.5,2.22,2.22,0,0,1,2.3,1.839l.007.041c.392,2.369,1.379,2.369,1.8,2.369a3.89,3.89,0,0,0,1.313-.278l.042-.015c.088-.029.159-.057.218-.08a2.066,2.066,0,0,1,.783-.174,1.763,1.763,0,0,1,1.537,1.028l.03.053a2.428,2.428,0,0,0,.4.573l.048-.024.038-.017a.811.811,0,0,0,.082-.048,1.891,1.891,0,0,1,1.025-.326,2.119,2.119,0,0,1,1.613.923c.072.089.231.293.458.584a85.854,85.854,0,0,0,7.066,8.445l.065.056.055.059a16.487,16.487,0,0,0,4.115,1.9c.263.1.485.183.646.248a1.371,1.371,0,0,0,.514.1,3.1,3.1,0,0,0,1.685-.724l.413-.3.509.032c.284.018.547.026.8.026a6.268,6.268,0,0,0,5.483-2.552,23,23,0,0,0,3.949-7.317c.149-.48.192-.674-.515-1.38a22.85,22.85,0,0,1-3.067-4.392l-.285-.505.152-.56c.552-2.035,1.145-3.993,1.718-5.886.516-1.7,1-3.312,1.378-4.717a21.661,21.661,0,0,0,.573-3.073c.136-1.073.306-2.409,1.677-2.58a1.768,1.768,0,0,1,.214-.013c1.886,0,2.374,2.578,2.684,4.995.04.31.079.645.12,1,.257,2.218.645,5.569,1.952,6.658.377.315.76.6,1.166.909a11.826,11.826,0,0,1,4.59,5.606c1.029,2.7,5.367,14.3,6.293,17.614.05.146.094.262.132.361a4.224,4.224,0,0,1,.109,2.715c-.078.491-.145.929-.205,1.324-.143.937-.255,1.678-.406,2.329a1.247,1.247,0,0,0,.536,1.313c.168.145.347.319.553.52a11.729,11.729,0,0,0,6.948,3.626l.7.1a30.093,30.093,0,0,0,3.993.381c2.164,0,4.429-.481,6.332-3.968l.147-.27.247-.185c.178-.132.367-.271.564-.416,1.727-1.262,4.092-2.99,4.7-5.9,1.085-5.528,2.363-6.521,3.354-6.767a4.374,4.374,0,0,1,.9-.1c.94-.036,1.411-.054,1.694-1.244.079-.318.13-.6.174-.85.131-.735.374-2.1,1.917-2.258.146-.015.3-.022.446-.022a3.085,3.085,0,0,1,2.963,1.636c.06.131.2.411.371.736a29.277,29.277,0,0,1,2.281,5.295,14.52,14.52,0,0,1,.33,1.712l66.048-66.023L182.487,40.311" transform="translate(0 8.111)" fill="#fffffe" fill-rule="evenodd"/>
                <path id="Fill-12" d="M122.529,43.512l9.009,32.954-25.744-20.8-9.075-7.342L75.679,31.383h63.406l-16.557,12.13M105.793,55.667,91.531,66.092l5.188-17.767m4.832-16.943L110.59.069h0l8.587,31.312" transform="translate(15.559 -0.069)" fill="#fffffe" fill-rule="evenodd"/>
              </g>
              <g id="Group-17" transform="translate(0 116.978)">
                <path id="Fill-15" d="M1.473.086,0,2.049,1.389,3.9A26.768,26.768,0,0,1,1.473.086" transform="translate(0 -0.086)" fill="#1a1919" fill-rule="evenodd"/>
              </g>
              <g id="Group-23" transform="translate(0.252 60.224)">
                <path id="Fill-18" d="M37.058,79.577c-.464-.28-1.3,1.025-2.278,3.4-.134.327-.252.609-.36.864L35.578,85c.321-.8.707-1.547.969-2.118.558-1.212.976-3.029.511-3.308" transform="translate(6.825 16.34)" fill="#1a1919" fill-rule="evenodd"/>
                <path id="Fill-20" d="M197.828,36.494c-.483,1.145-1.933,4.58-2.241,11.979a28.976,28.976,0,0,0,1.934,12.508c.307.88-.308,1.233-.616.175s-2.46-4.325-2.022-12.727c.352-6.738,1.846-10.79,2.5-12.155C197.835,35.349,198.311,35.349,197.828,36.494ZM181.119,92.779c-.362,0-.724.066-.856-.4s-.627-.066-.659-.562.593-.1.527-.727c-.824-4.855-2.241-9.645-5.569-16.813s-4.615-7.036-6.163-8.82-.988-1.751-2.076-3.039-6.2-6.606-6.921-7.167-.9-1.055.166-.3a38.387,38.387,0,0,1,5.349,4.613c3.12,3,4,4.625,8.085,10.086,4.79,6.342,8.251,17.87,8.679,20.546S181.482,92.779,181.119,92.779ZM174.66,81.548A1.454,1.454,0,1,1,173.177,83,1.469,1.469,0,0,1,174.66,81.548Zm-2.571-2.708a1.325,1.325,0,1,1,1.418-1.322A1.372,1.372,0,0,1,172.089,78.84ZM167.9,71.077a1.152,1.152,0,1,1,1.121,1.42A1.3,1.3,0,0,1,167.9,71.077Zm9.821,21.107c-.922-.429-1.812-.971-7.151-.926a28.687,28.687,0,0,0-7.119.827c-.714.149-.725-.165-.033-.43s2.7-.925,7.251-1.057,6.591.595,7.184.958S178.648,92.614,177.725,92.185ZM167.41,93.341c-2.274.528-3.262,1.123-3.46.627s1.713-.891,3.229-1.09,3.329-.364,3.427-.033C170.712,93.194,169.684,92.812,167.41,93.341Zm-2.735-26.888a1.022,1.022,0,1,1,1.021,1.024A1.022,1.022,0,0,1,164.675,66.453Zm.659,17.672a1.318,1.318,0,1,1-1.318-1.321A1.32,1.32,0,0,1,165.334,84.124ZM159.878,62.57c.117-.753.674-1.255,1.246-1.123a1.368,1.368,0,0,1,.823,1.6c-.117.752-.674,1.255-1.246,1.122A1.368,1.368,0,0,1,159.878,62.57Zm2.4,17.226a1.128,1.128,0,1,1-.9-1.471A1.229,1.229,0,0,1,162.281,79.8Zm-3.176,33.065c-.858-2.578-2.241-4.029-4.713-6.11a38.614,38.614,0,0,1-3.922-3.568c-.659-.726-.55-.922.363-.363a29.9,29.9,0,0,1,3.8,2.532c.967.881.242-.11-.857-1.365a36.825,36.825,0,0,0-3.625-3.479c-.549-.418-.549-.551.11-.309a10.6,10.6,0,0,1,2.241,1.343c.681.506.483.2.483-.616a1.9,1.9,0,0,0-1.274-2.026,20.335,20.335,0,0,1-2.307-1.1c-.4-.287-.329-.529-.022-.375a4.527,4.527,0,0,0,1.318.463c.725.154,1.011.044,1.143-.132s.176-.353-.461-.573a5.916,5.916,0,0,1-2.087-1.321c-.615-.617-.264-.793.22-.462a6.123,6.123,0,0,0,2.966.9c.725-.022.944-.418.066-.6a8.921,8.921,0,0,1-2.856-1.563c-1.274-.837-.835-2.047-1.626-2.687a56.97,56.97,0,0,1-4.24-5.791c-.681-1.035-.747-.837-.725.11.176,2.576,1.473,3.48,3.559,6.783s-1.274,5.967-3.032,6.738-.594-2.048-.879-2.885a6.715,6.715,0,0,0-3.1-3.831c-.637-.374-.922.309-.548.617a3.261,3.261,0,0,1,.66,4.338,5.988,5.988,0,0,1-3.1,2.709c-.4.241-.5-.022-.2-.286a10.975,10.975,0,0,0,2.922-3.172c.461-1.035.483-2.4.022-2.466s-.329,1.233-.506,1.585-.373.375-.373-.308a4.745,4.745,0,0,0-.682-2.488c-.439-.484-.791-.022-.681.947s-.747,1.388-1.559.947a.943.943,0,0,1-.374-1.519c.329-.309.945-.551.879-.947s-.637-.286-1.252-.264-1.208.748-1.934,1.761a3.637,3.637,0,0,0-.088,3.853,2.409,2.409,0,0,0,2.285.969c.307-.022.329.088.121.33a2.235,2.235,0,0,0-.329,1.948,1.761,1.761,0,0,0,1.779,1.09c.494-.033.231.364.1.661s-.527.362-.988.3a3.773,3.773,0,0,1-3.1-2.081.986.986,0,0,1,.033-1.156c.263-.264-.495-1.058-1.154-1.387s-.955-.892-.4-1.355.791-2.18,1.087-3.6S133.7,91.788,135.9,90.9s4.02.825,4.317,1.09.429.4.4-.1a26.575,26.575,0,0,0-.659-4.756c-.758-3.8-4.481-6.508-5.6-7.268s-1.021-1.783-.692-1.717a14.689,14.689,0,0,1,3.131.793c4.633,1.466,7.712,4.624,9.558,6.474s4.614,3.964,5.7,4.988.592.991-.232.33c-.871-.7-3.69-2.774-4.251-3.435s-.824-.595-.33.231a17.265,17.265,0,0,0,3.032,4.1c2.141,2.181,5.206,4.1,6.921,5.814s1.614,2.181,1.68,2.907.231,3.039.3,3.5-.1.594-.329.2c-.527-1.057-2.109-3.733-2.636-4.492s-1.187-.4-.627.528A43.189,43.189,0,0,1,159.6,112.6C159.8,114.415,159.468,113.952,159.105,112.862Zm-2.23,6.386c-1.055.4-1.582,1.718-1.274,4.581.087.792-.3.922-.593,1.32a57.714,57.714,0,0,0-4.416,5.9c-.527,1.013-.79,1.145-2.328,1.233a21.64,21.64,0,0,1-6.943-1.321c-.878-.264-.878-.793-1.055-1.322s-.615-4.58-4.657-2.994c-2.109,1.056-1.934,5.549.175,7.839.308.308.7.837-.087.617a9.217,9.217,0,0,1-2.9-2.379,3.121,3.121,0,0,1-.44-2.554,69.49,69.49,0,0,0,1.406-11.1c0-.705.616-1.365.571,0s-.087,3.435-.087,4.492.308,2.246,1.318,1.982.791-1.893.264-4.1a12.594,12.594,0,0,1,.791-8.632c1.187-2.642,3.6-4.272,3.868-4.1s-2.505,2.114-3.472,4.625a13.329,13.329,0,0,0-.791,5.549c.044.66.176-.177.263-.661s.528-4.227,2.725-6.3c1.406-1.233,3.647-.749,3.471.132-.132.7-1.713-1.013-2.944.573a16.188,16.188,0,0,0-1.933,2.862c-.22.484.132.528.4.177s2.548-2.643,3.822-.485a8.835,8.835,0,0,1,1.011,5.461c-.088,1.189-.219,1.189.571,2.114s2.724,3.3,4.175,4.1,1.757.44,1.889-.265-.264-.661-1.187-1.453a10.8,10.8,0,0,1-3.076-5.858c-.308-1.321-.132-1.982.351-2.07s.484.749,1.187,3.788c.087.353.258.28.314-.2.075-.663.169-2.219.3-2.88s.264-.836.616-.132.834,1.63,1.187,2.466.662.636.424-.4c-.178-.777-.864-2.986-1.347-5.585s-.659-4.228.308-4.184.923,1.454.747,2.07.747.793,1.011-.044a3.4,3.4,0,0,1,5.317-.925C158.369,113.082,158.325,118.719,156.875,119.248Zm-.393,7.259a6.942,6.942,0,0,1-1.053,2.458,12.563,12.563,0,0,1-2.332,2.322c-.271.136-.287-.09-.091-.377s2.573-3.71,3.22-4.645C156.481,125.9,156.617,125.888,156.482,126.507Zm-14.475,8.853c-.708-.091-2.934-.694-3.206-1.253a.783.783,0,0,0-1.233-.376.994.994,0,0,1-1.339.211c-.451-.362-.617-1.237-.316-2.715s1.264-1.75,2.107-1.569,1.5.824,1.309,1.554c-.286,1.116-.933-.377-1.159.075a1.755,1.755,0,0,0,.948,1.991c.963.6,2.528,1.432,3.115,1.7S142.713,135.45,142.007,135.36Zm-11.5-47.6a29.949,29.949,0,0,0-2.373,3.392,3.345,3.345,0,0,0-.439,2.863c.307,1.453.307,1.453.439,2.114s-.132.748-.395-.176-.748-2.819-.879-3.7a2.406,2.406,0,0,1,.835-2.378c.878-.925,1.757-2.071,2.5-2.731C130.816,86.6,131.257,86.833,130.51,87.758Zm-5.756,4.933c-.132-1.5-.483-2.686.879-3.743s3.778-3.171,4.614-3.744,1.231-.4.615.176c-1.591,1.481-4.79,3.92-5.141,5.461S124.887,94.188,124.754,92.691Zm-4.7-7.906c-7.932,4.823-12.327,3.938-13.775,3.634-.945-.2-1.714-.837,0-1.42A25.394,25.394,0,0,0,118.8,77.386c3.131-4.361,2.208-10.5,1.878-11.957s.264-1.817,1.022-1.883a21.273,21.273,0,0,0,3.23-.694,1.1,1.1,0,0,1,1.384.265c2.637,3.369,1.318,8.687-.033,11.561-3.493,7.1-11.6,10.868-12.589,11.33s-1.22.76-.527.594,4.087-1.024,9.327-5.02,6.723-9.943,7.25-11.66.132.825-.692,2.907-1.285,3.237-.2.859,1.318-2.444,1.12-1.718C128.423,77.221,126.578,80.722,120.053,84.785Zm-8.305,10.328c-.263.88-1.626,5.549-2.065,7.135-.132.528,0,.573-.44.573s-1.274-.308-.747.353,2.109,3.787,2.329,4.14.264.529-.219.617-5.756,3.656-3.955,5.9c1.6,2,6.37-2.143,5.668-2.994-.208-.253-.406.143-.769-.023a1.761,1.761,0,0,0-1.549.463c-.428.4-.362.925-.56,1.057s-1.121-1.42.363-2.477,3.493-.892,3.065.264a4.226,4.226,0,0,1-.2,2.18,20.845,20.845,0,0,1-3.229,5.252c-1.681,2.08-2.142,2.576-3.888,2.543-1.845,0-1.426-1.233-3.229-1.057a7.31,7.31,0,0,1-2.9-.3c-.561-.166-.48-.287.2-.231.965.079,1.759.112,2.342.107,1.184-.008,1.3-.342,1.019-1.1a4.03,4.03,0,0,1-.264-2.643c.066-.264-.264-.264-.988-.165a5.8,5.8,0,0,1-3.691-.727c-.956-.792-1.285-1.255-1.45-1.354s.066-.2.4-.429a3.946,3.946,0,0,0,1.219-1.454c.264-.628.4-.33.462.231s.2,1.454-.362,1.915c-.264.3-.1.364.3.232s3.46-.793.2-5.384-3.757-4.888-4.152-5.45-.087-.75.384-.11c.308.418,1.143.969.2-.352s-1.363-2.092-1.757-2.664-.264-.793.351.022,1.8,2.158,2.219,2.665.659.573.089-.286-1.3-2.312-1.912-3.281-.352-.925.308-.11S96,100.156,96.5,100.861s.4,1.475,1.933,3.281a10.188,10.188,0,0,0,5.119,3.744c.33.022.44.022-.11-.374s-.768-.639-.022-.33,1.846.484.769-.067a13.267,13.267,0,0,1-3.142-2.51c-.2-.242-.044-.309.506.066a12.726,12.726,0,0,0,3.932.705c.484,0,.571-.088-1.208-.947a13.867,13.867,0,0,1-5.514-4.547,1.986,1.986,0,0,1-.033-2.346,24.486,24.486,0,0,0,2.405-4.228c.1-.528.066-.759.329-.561s.627.363.165-.3-1.779-3.435-2.406-4.558-.4-1.222,1.187,1.09,1.681,2.973,2.142,3.568.462.3.857.958.439.378.066-.462a32.686,32.686,0,0,0-1.713-3.6c-.428-.693-.132-.826.4.033s1.977,3.534,2.406,4.1.363.033.627.429.461.363-.1-.793-.923-2.048-1.285-2.709-.033-.793.527.3,1.516,3.138,2.109,4.36,1.417,2.742,1.713,2.576-.362-2.015-.725-3.139-.659-2.114-.89-2.642.4.231.692.3.791.958,1.121,1.486.339.3.362-.3c.033-.859.3-.793.3-1.222s.263-.6.3.264,0,1.784,0,2.379a3.852,3.852,0,0,0,.2,1.321c.132.429.165.595.264-.264s.231-2.015.362-2.84.3-.463.3.264-.165,3.2-.2,4.162.165.562.429-.231.549-1.63.736-2.335S112.012,94.232,111.748,95.113Zm-12.523,25.94c-1.977-.793-3.031-1.387-2.109-1.189a11.075,11.075,0,0,0,3.164.6c.856-.132,1.845.066,1.845.529C102.125,121.52,101.2,121.847,99.225,121.053Zm-6.755-15.26a4.058,4.058,0,0,1-1.483,2.246c-.692.595-.55-.67-.033-1.188a10.167,10.167,0,0,0,1.483-2.247C92.832,103.944,92.668,104.835,92.47,105.793Zm-3.527.694c.791-1.388,2.109-3.535,2.7-4.657.458-.866,1.351-.694.593.793a22.824,22.824,0,0,1-2.274,4.063C89.142,107.643,88.153,107.874,88.944,106.487Zm-.626-1.784c-.1.4-.329.1-.2-.4a22.218,22.218,0,0,1,2.307-4.1c.535-.754,1.516-1.057.692.463a27.179,27.179,0,0,1-1.878,3.3C88.746,104.572,88.416,104.307,88.317,104.7Zm-.187-49.867c2.637-.815,3.01-1.96,4.042-3.237s1.736-1.784,1.714-3.237c-.044-2.378-2.043-4.779-2.769-5.483s-.351-.726-.351-1.145-.132-.7.527.088S94,45.456,94.282,47a6.029,6.029,0,0,1-1.823,5.924c-2.219,2.069-3.515,2.224-4.13,2.312S87.433,55.052,88.131,54.837Zm-1.358-1.325c-.189-.068-.245-.155-.026-1.031.3-1.192-.659-1.5-1.45-1.894s-.352.264-1.055-.044a5.965,5.965,0,0,1-2.9-2.863,13.073,13.073,0,0,1-.571-9.953c1.055-2.51,2.24-4.976,2.68-5.9s.572-1.057,1.055-.705a9.962,9.962,0,0,1,2.285,2.114,8.184,8.184,0,0,1,1.846,4.272c0,.881-.616-.573-1.231-1.542a40.861,40.861,0,0,0-2.637-3.435c-.571-.66-.615-.484-.967-.176s-.132.352.22.7.923,1.013,2.022,2.378a7.21,7.21,0,0,1,1.537,3.743c.132,1.013-.571-.176-1.1-1.013s-2.2-3.083-2.68-3.788-.616-.573-.923-.176-.263.485.044.881,1.23,1.673,1.977,2.731.088,1.013-.483.44-1.45-1.806-1.8-2.246-.483-.309-.747.176-.878,1.5-1.1,5.285A8.626,8.626,0,0,0,84.813,49.4c2.066,1.1,3.033,1.5,2.944,2.467S87.128,53.639,86.772,53.512Zm8.828.158c.55-.418.681-.524.857.308.154.727.154.9.263.969s1.1-.177.549.682a5.783,5.783,0,0,1-3.208,2.841c-.791.286-1.032.044-.242-.375a4.864,4.864,0,0,0,2.351-3.369c.132-.33,0-.485-.33-.2a6.756,6.756,0,0,1-4.086,1.74c-.615.022-1.055-.111-.132-.264A7.666,7.666,0,0,0,95.6,53.67ZM98.8,64.8c.172.517-1.054.694-.3,1.288s2.076,1.52,2.538,1.883.658.364.56,1.057-.066,1.222.263.925,1.614-1.454,2.7-.43,1.154,2.015.428,2.642-1.681-.363-1.384-1.023-.2-1.222-.956-.826a2.053,2.053,0,0,0-.362,3.039,4.942,4.942,0,0,0,2.043,1.849c.3.132.494.4.033.43s-1.615-.165-2.9-1.85a29.3,29.3,0,0,1-2.9-4.888c-.4-.892-.758-.529-.659.3a15.833,15.833,0,0,0,3.658,6.607c.693.627.264.66-.4.264s-2.7-3.667-3.526-6.045-.626-3.138-1.417-2.544S93.689,68.83,94.052,72.4a9.267,9.267,0,0,0,.923,2.676c.4.595-1.087-.43-.132.5s1.385,1.255,1.22,1.453-1.483-.957-2.439-2.412-1.713-4.624-.56-6.87,4.35-2.94,4.844-2.973S98.731,64.6,98.8,64.8Zm7.349,4a18.1,18.1,0,0,0-3.1-2.246,1.881,1.881,0,0,1-.758-1.751c0-.739.066-1.156.988-.264a39.2,39.2,0,0,1,4.021,4.1c.724,1.09,1.219,2.18.3,4.723-.461,1.024-.988,1.354-1.549.891s.3-1.189.758-1.783A3.405,3.405,0,0,0,106.146,68.8Zm2.878.683c-.088-1.718-1.8-2.995-2.768-3.963s-.7-.926.219-.573a17.641,17.641,0,0,1,3.032,1.5c.791.529.791.176.22-.528a11.507,11.507,0,0,0-3.822-2.774c-2.329-1.233-3.955-2.379-5.229-2.907s-1.446-1.038-.351-.616a44.7,44.7,0,0,1,7.338,3.435c1.01.705,1.274.793.923.309s-.879-.881-.572-.793.7,0,2.065,1.277,1.538,3.391,1.538,4.932a15.955,15.955,0,0,1-.352,3.215c-.132.793-.439,1.585-.439.837s-.088-1.145-.132-2.819-.7-1.1-.879-.309-.351,2.026-.483,3.127-.308,1.057-.264.22A33.953,33.953,0,0,0,109.024,69.48Zm-8.349-24.09c2.173-.941,4.306-.176,6.108,4.1s8.129,7.751,18.587,7a18.473,18.473,0,0,0,5.493-1.057c.747-.221,1.494-.176.791.836s-4.262,6.078-15.951,5.813c-5.492-.132-9.4-.088-15.686-5.813-.791-.661,0-.484.615.044a22.791,22.791,0,0,0,14.324,4.669c8.085-.221,10.161-1.676,10.238-1.718s.483-.44-.527-.176-10.018,2.246-16.785-.616-8.7-6.562-8.963-10.262A3.163,3.163,0,0,1,100.675,45.39Zm31.011,13.729c.89-.76,1.022-.627,1.417-.5s.923.462,1.648.76.593.528-.2.462-1.878.1-2.637.033S131.331,59.423,131.686,59.119Zm.231,1.52c.988.33,3.131.925,4.712,1.387s2.175.628,1.648,1.255-1.088-.264-2.867-.925a33.369,33.369,0,0,0-5.635-1.189c-.858-.132-.434-.439.1-.76C130.533,60.011,130.928,60.309,131.917,60.639Zm13.49,15.888c.527,1.277-.7,3.084-1.626,1.145s.352-3.435,2.856-5.021,3.955-3.655,3.911-5.99c.308-4.139-1.45-6.165-1.933-6.65s-.747,1.057-1.538,2.555a31.455,31.455,0,0,1-3.6,4.624c-.527.573-.879.661-.264-.132a45.322,45.322,0,0,0,4.438-7,1.313,1.313,0,0,0-.044-1.19,6.493,6.493,0,0,0-.792-.836c-.351-.309-.351-.088-.4.528-.439,3.083-3.515,7.883-4.789,9.117s-1.933,2.687-1.67,3.787-.659.749-1.186.088a4.647,4.647,0,0,1-.176-5.417,45.929,45.929,0,0,0,3.867-4.889,10.935,10.935,0,0,0,1.89-5.153c.036-.841.327-.779,1.208-.143a16.585,16.585,0,0,1,4.68,4.371c4.569,8.06-.264,11.671-2.593,12.772S144.879,75.25,145.407,76.527ZM125.523,54c2.308-2.774,4.614-4.558,5.471-4.822s.132-.529-.462-.4-1.12.264-.461-.33,1.846-1.85,2.768-2.577a3.755,3.755,0,0,1,2.966-.925,60.335,60.335,0,0,1,9.359,1.85,16.459,16.459,0,0,1,6.2,3.039c.659.264-.33.595-.792.4a19.892,19.892,0,0,0-2.7-.66,20.348,20.348,0,0,1-4.679-1.454,27.993,27.993,0,0,0-6.788-1.783c-1.318-.132-1.516.858-.528.858a23.3,23.3,0,0,1,8.964,2.643c1.319.595.791.727-.33.661a18.627,18.627,0,0,1-5.207-1.255c-1.978-.792-4.35-1.387-5.273-1.189s-.4.4.593.528A79.524,79.524,0,0,1,146.286,54c6.591,4.558,7.711,10.173,7.843,10.966s-.461,1.255-.461.33c-.2-6.012-7.185-10.966-10.875-12.42s-7.316-2.246-9.1-2.841-1.45.463-.857.793c-.593,0-.923.6-.264.859a42.59,42.59,0,0,1,5.866,2.444c1.054.595.791,1.057.132.661S136.6,53.736,136,53.339a2.079,2.079,0,0,0-1.449-.529c-.66,0-2.373-.2-3.361-.264s-1.451.594-.989.792.4.528-.527.726a34.892,34.892,0,0,1-3.757.661C125.326,54.727,125,54.636,125.523,54Zm28.859,9.206a1.289,1.289,0,1,1,1,1.6A1.338,1.338,0,0,1,154.382,63.206Zm2.93,8.289a1.278,1.278,0,0,1-1.272,1.266,1.256,1.256,0,0,1-1.134-1.373,1.278,1.278,0,0,1,1.272-1.266A1.255,1.255,0,0,1,157.312,71.5Zm.969,2.8a1.257,1.257,0,0,1,1.134,1.374,1.279,1.279,0,0,1-1.271,1.267,1.257,1.257,0,0,1-1.135-1.374A1.28,1.28,0,0,1,158.281,74.3Zm12.986,39.92c1.219-.231,2.405-.231,2.471.429s-.758,1.52-1.977,1.718-2.142-.165-2.208-.529S169.456,114.56,171.266,114.217ZM81.035,56.356c-.747.7-2.4,2.792-3.164,3.611-.659.7-.791.264-.176-.616s2.5-3.3,2.9-3.876.527-.837.834-.44C81.678,55.355,81.782,55.652,81.035,56.356Zm-.923,51.266a3.238,3.238,0,0,1-1.614-1.366c-.429-.793-.494-1.31.033-1.486.626-.21.352.429.614,1.179a2.061,2.061,0,0,0,1.187,1.233C80.859,107.489,80.727,107.842,80.112,107.622ZM76.2,58.734c-1.143,1.277-1.01.749-.219-.528s2.5-4.316,3.076-5.153.833-.861,1.23-.4c.527.616.615.924.176,1.365S77.343,57.457,76.2,58.734ZM73.213,57.1c.747-1.057,3.6-5.284,4.394-6.3s.879-1.233,1.275-.881c.466.416.747.616-.22,1.586S74.18,56.8,73.521,57.5,72.467,58.162,73.213,57.1Zm-.154,47.1c-.336.336-2.241-.793-3.3-1.718s-1.12-1.718-.659-2.312.988-.595,1.055.4A4.158,4.158,0,0,0,72,103.283C72.8,103.746,73.257,104.009,73.06,104.208ZM67.5,63.35a.974.974,0,1,1,.973,1.014A.994.994,0,0,1,67.5,63.35Zm-.588,16.04a4.3,4.3,0,0,0-3.318-1.453c-.439.088-.764-.083-.2-.441a3.544,3.544,0,0,1,2.878-.485C68.513,77.747,67.589,80.293,66.908,79.39Zm.615,3.083a10.258,10.258,0,0,1-2.5,4.1c-1.187,1.388-1.428,1.871-2.043,1.563s-1.516-.286-1.516-.594,1.014.217,2.242-.837a11.178,11.178,0,0,0,3.317-4.449C67.286,81.694,67.7,81.79,67.523,82.473Zm-3.8,7.575c-.132.309-.176.529-.748.352s-9.315-3.171-9.8-3.436-.741-.171-.308-.7c.571-.7.923-.7,1.494-.352.7.429,8.48,3.127,8.964,3.348S63.854,89.739,63.723,90.048ZM52.21,82.869a5.25,5.25,0,0,1-.614-4.008c.132-.528.263-.441.219.308s.043,1.277.308.22,1.933-4.933,4.482-4.1,1.713,4.228,1.582,4.713-1.055,1.673-.835.793-.176-3.832-1.45-4.052-3.778,1.586-3.3,5.462C52.715,83.079,52.65,83.838,52.21,82.869Zm-.439-6.441c.33-1.09,1.648-4.492,4.812-4.36s3.164,5.021,3.23,6.705.561,1.321,1.286,1.354-.033.4-.791.693-.956.1-.89-1.057c.164-3.038-.4-4.954-2.834-5.616s-3.822,1.289-4.646,2.643C51.936,76.792,51.442,77.518,51.771,76.428Zm10.876,4.03c-.66.033-.462-.463.032-.562a4.476,4.476,0,0,1,1.417-.2c1.658-.108.066,3.831-.231,4.228s-.725.264-.363-.132a4.007,4.007,0,0,0,.989-2.477C64.459,80.293,63.3,80.425,62.647,80.458ZM62.358,73.1a1.015,1.015,0,1,1-.973,1.014A.994.994,0,0,1,62.358,73.1Zm1.784-4.61a.869.869,0,1,1,.435,1.256A.943.943,0,0,1,64.143,68.492Zm5.845-9.822a1.026,1.026,0,1,1,.606,1.182A.943.943,0,0,1,69.987,58.67Zm1.337-3.591c.923-1.365,3.691-5.285,4.482-6.3s1.231-1.718,1.538-2.114c.459-.591.572-1.013.616.088s.22,1.1-.572,2.114-4.613,5.594-5.756,6.87S70.4,56.444,71.324,55.079Zm-43.88.342c-.286,1.376-1.292,1.014-.89-.171,2.744-8.078.171-17.017-.229-19.137s.785.186,1.794,5.68A33.529,33.529,0,0,1,27.444,55.421Zm194.771,11.1a60.883,60.883,0,0,1-1.142,6c-.161.835-.337,1.586-.523,2.271l16.489-16.526-11.484-11.51a37.9,37.9,0,0,1-1.742,6.256c-.207.807-.364.781-.312-.182a28.191,28.191,0,0,0-.337-3.745c-.1-.832-.389-.936-.415-.286s-.337,2.367-.285,2.965-.156.676-.234.234-.415-.286-.675-1.326a28.6,28.6,0,0,0-1.064-3.277c-.337-.833-.259.728-.052,2.081s.1,2.679-.1,2.653-.182-1.222-.727-2.627a27.392,27.392,0,0,0-1.972-3.485c-.337-.65-.6-.546-.389,0s.389,1.2.675,1.873-.129.858,0,1.144a20.667,20.667,0,0,1,.622,2.029c.207.78,0,.91-.233.364s-.6-1.431-1.038-2.575-1.117-.312-1.635-1.066a15.562,15.562,0,0,1-1.271-2.835c-.233-.624-.545-.573-.416-.026a19.109,19.109,0,0,0,1.246,3.563c.7,1.456,1.739,3.875,1.868,4.265s-.1.729-.312.234a23.338,23.338,0,0,0-1.738-3.823,5.731,5.731,0,0,0-2.31-2.705,11.617,11.617,0,0,1-2.517-3.563c-.415-.754-.83-.572-.545.078a22.218,22.218,0,0,0,1.92,3.459c.727.962,1.038,1.456.856,1.664s-.492-.286-1.323-1.222a13.131,13.131,0,0,1-1.817-3.9c-.286-.884-.857-.728-.778.13a9.62,9.62,0,0,0,.648,2.315c.182.494.208.988-.415.39a5.212,5.212,0,0,1-1.376-2.5c-.095-.853-.649-1.379-.493.026a8.5,8.5,0,0,0,1.3,3.459c.389.52.208.65-.155.313a4.5,4.5,0,0,1-1.22-1.535c-.334-.669-.622-.416-.934-.754a3.168,3.168,0,0,1-.675-1.612c-.077-.624-.233-.807-.312-.312a3.748,3.748,0,0,0,.389,2,14.83,14.83,0,0,1,.83,2.08c0,.208-.208.26-.233.052a1.153,1.153,0,0,0-.415-.624,5.59,5.59,0,0,1-1.634-4.812c.077-1.144-.882-.442-.83,1.977a5.123,5.123,0,0,0,2.2,4.005c.6.572.39.78-.259.286a9.962,9.962,0,0,1-2.932-5.93c-.156-2.757-.39-1.69-.883-.156a7.763,7.763,0,0,0,2.622,8.115c1.349,1.326.207,1.379-.857.494s-2.984-3.746-2.673-8.089c.286-5.227,2.413-10.195,2.829-11.47s.208-1.69-.441-.572-2.855,6.139-3.374,7.543-.83,1.352-.492-.052,1.972-5.9,2.439-7.438-.182-1.56-.779-.754-2.777,4.863-3.192,5.67-.752.988-.415.182.8-1.769,1.22-2.965.649-1.535-.234-.286a29.6,29.6,0,0,0-3.244,5.956c-.389,1.43-.726,1.847-1.09.651s-.363-2.185-.182-5.384-1.4-1.014-1.894.937-.986-.261-1.557-2.159-1.3-1.612-1.505-.7a13.35,13.35,0,0,0-.208,3.615c.129.781-.051,1.275-.8.677s-2.829-2.887-4.283-4.343-1.53-.832-.96-.052a31.773,31.773,0,0,0,2.387,2.679c.753.781.208.624-.1.364s-.857-1.092-.467-.026-2.232-1.716-3.114-3.3a31.053,31.053,0,0,1-2.8-6.4c-.208-.806-.493-.624-.338.052s-.311.416-.675-.676a77.013,77.013,0,0,1-2.465-10.378c-.078-.728-.363-.807-.338-.1a38.97,38.97,0,0,0,1.012,6.97,40.881,40.881,0,0,0,2,6.217c.337.858.753,2.549,1.219,3.511s.208,1.274-.337.442a24.265,24.265,0,0,1-1.557-2.68c-.364-.78-.052.469.312,1.249s-.078.884-.389.26a31.833,31.833,0,0,1-2.6-7.412c-.155-.832-.311-.494-.518-1.8s-.415.625-.441,1.639-.442-.546-.805-1.483-.389,1.144.441,3.355a46.228,46.228,0,0,0,2.595,5.67c.389.6.182.624-.13.26a16.877,16.877,0,0,1-1.116-1.847c-.571-.962-.441-.052-1.09-.676a22.218,22.218,0,0,1-3.062-4.318c-.259-.806-.674-.91-.6-.416a7.829,7.829,0,0,0,1.557,3.537c1.245,1.69,3.036,3.928,3.685,4.656s.285,1.04-.156.6-1.557-1.612-3.918-3.8a53.288,53.288,0,0,0-4.827-3.953c-1.142-.884-1.557-.442-1.09.208s-.908-.078-1.765-.728-1.038-.39-.181.234.026,1.144.623,1.665,3.762,2.991,5.138,4.318,1.791,2.054,1.661,2.185-.467-.182-1.505-1.145-4-3.485-4.827-4.109-.882-.676-.96-.338-.83.026.052.884.234.807-1.063-.208-2.31-1.274-3.036-1.95-1.323-.625-.675.026a21.014,21.014,0,0,0,3.217,3.173c2.1,1.664,3.789,2.965,5.164,4.213.589.534.363.963-.208.52s-1.09-.859-2.206-1.82-1.4-.65-1.972-1.118-2.751-2.081-3.555-2.731a15.924,15.924,0,0,0-1.791-1.04c-.623-.442-.648-.443-1.375-.911s.182.546.96,1.17,7.369,5.982,8.044,6.555,1.661,1.43,1.531,1.586-.442-.182-1.739-1.248-6.124-4.734-6.566-5.124-.6-.182-.285.182.909,1.274.727,1.483-1.3-.6-2.076-1.17-1.427-.6-.416.208,6.8,5.9,7.318,6.32.442.832.908,1.144.286.625-.1.365-.909-.65-2.777-2-4.619-3.355-6.228-4.4c-.951-.615-1.168,0-.882.286a15.083,15.083,0,0,0,1.635,1.69c1.349,1.248,4.775,4.11,5.864,4.916.963.712.727,1.014-.181.313S156.317,34,155.3,33.3a5.939,5.939,0,0,0-2.257-.962,16.36,16.36,0,0,1-2.7-1.587c-.934-.6-2.023-1.04-.389.208s8.3,6.581,9.057,7.179.57.806-.156.26-4.515-3.173-5.709-4.031a16.264,16.264,0,0,0-2-1.092c-.493-.364-.935-.494-1.817-1.2s-1.4-.391-.519.234,1.635,1.509,2.18,1.9,6.669,5.072,7.448,5.644.649.833-.13.235-2.881-2.081-3.841-2.627-3.866-2.263-4.9-2.991-1.453-.182-.908.312,5.267,4.031,5.916,4.474.623.728,0,.468-4.982-2.367-5.916-2.887-1.349-.078-.6.287,7.759,4.551,8.46,5.02.545.65.042.366c-.7-.4-7.711-4.492-8.766-5.02s-1.186-.132-.4.2c1.516.594,9.821,5.615,11.007,6.275s.726,1.387-.066.594c-3.493-2.312-11.468-5.946-12.984-6.738s-2.241,0-1.055.528,3.691,1.916,4.877,2.511,2.859,1.74,4.284,2.576c1.213.711.979,1.206-.2.463-1.115-.7-6.262-3.436-7.646-4.228s-2.373-.066-1.45.462,5.141,2.51,6.657,3.3.923,1.255-.2.529a37.966,37.966,0,0,0-4.746-2.048,10.838,10.838,0,0,0-3.164-.925c-1.318-.2-1.516.264-.659.462,7.514,1.916,15.357,7.993,16.28,8.654s.264,1.057-.4.528A50.209,50.209,0,0,0,148,45.082a61.33,61.33,0,0,0-10.876-3.171c-.857-.066-1.011.077-.329-.925,2.461-3.611,5.185-13.036,5.362-13.565a3.868,3.868,0,0,1,.966-1.585C160.785,13.713,174.245,7.112,182.448,3.55L181,2.1a208.582,208.582,0,0,0-40.249,22.948c-1.142.793-1.041,3.4-2.328,6.695a59.5,59.5,0,0,1-5.054,10.746c-3.163,1.5-8.26,7.4-11.161,12.331l-.028.058c-.231-.027-2.414-.285-3.033-.421-3.862-.641-6.608-1.7-8.869-4.526-1.9-2.372-2.6-4.068-3.723-5.239a7.021,7.021,0,0,0-1.481-1.083,8.271,8.271,0,0,0-1.932-.634c-1.785-.236-3.88.4-6.222,2.442-2.241-1.057-3.493-2.973-3.954-8.191s-4.745-8.654-7.513-10.041c-1.977-4.955-4.13-9.659-4.46-10.716a5.514,5.514,0,0,0-2.576-2.825A210.32,210.32,0,0,0,56.09,1.652L54.353,3.393A204.856,204.856,0,0,1,76.772,14.65c1.67.88,1.67,1.585,2.109,2.906s3.6,8.632,3.954,9.248.967,1.5-.264,3.7-4.042,6.43-4.218,11.8a9.328,9.328,0,0,0,6.063,9.072s1.23-.088,1.033.9-.923.4-1.253,0-.636.768-2.284-1.081-2.8-2.647-3.678-6.425c-.113-.543-.605-.124-.881.249-.383.52-5.213,5.792-5.8,6.4s-.655.272.226-.837,5.259-7.918,5.53-8.325.045-1.063-.633-.294-7.539,8.755-7.989,9.23-.858,0-.181-.792,4.74-6.538,6.973-9.139,2.664-3.009,3.048-3.393.18-.769-.384-.249-7.99,7.126-11.24,11.537c-.519.679-1.038.407-.272-.634s2.889-4.139,4.447-5.972,2.19-2.964,3.634-4.05A29.96,29.96,0,0,0,77.558,36c.5-.452.338-.837-.293-.2a29.834,29.834,0,0,1-2.6,2.059,35.265,35.265,0,0,0-2.98,2.42,63.8,63.8,0,0,0-6,6.017A68.96,68.96,0,0,0,58.1,56.939a118.335,118.335,0,0,0-7.25,15.194c-.329,1.222-.823,1.553-1.087.661.395-.231.395-.661.56-1.354A51.341,51.341,0,0,1,52.5,65.362,49.371,49.371,0,0,1,58,55.024a87.125,87.125,0,0,1,6.261-8.257,55.281,55.281,0,0,1,6.262-6.97,35.163,35.163,0,0,1,6.723-4.921c1.483-.76,2.165-.681,2.5-.43.208.154.373-.162.494-.4.352-.682.989-2.081,1.219-2.609s-.066-.429-.593-.066-2.834,1.619-3.988,2.345-6.888,4.823-8.93,6.474a55.793,55.793,0,0,0-5.57,5.45c-.593.727-.824.594-.165-.231s5.6-6.507,7.975-8.158a56.836,56.836,0,0,1,5.965-3.6c.593-.264.326-.506-.231-.264a58.169,58.169,0,0,0-6.426,3.6c-.3.231-.494-.066.263-.6A55,55,0,0,1,75.795,32.2a36.532,36.532,0,0,1,4.12-2.015c.56-.2.494-.528-.363-.4a9.138,9.138,0,0,0-2.669.925c-.725.4-4.713,2.444-5.5,3.039s-.857.132.132-.6,4.416-3.2,5.305-3.732,1.549-1.024.923-1.057a1.94,1.94,0,0,0-1.483.529c-.33.33-5.2,3.45-6.1,4.194-.957.793-1.648,1.289-1.945,1.553s-.626.033.066-.528,3.3-2.543,5.01-3.864a29.768,29.768,0,0,1,3.493-2.477c.89-.5,1.417-.693,1.285-.925s-1.088-.1-1.582-.066-.692.529-1.516.76A10.071,10.071,0,0,0,72.73,28.9c-.989.594-1.812,1.288-3.856,2.675s-4.185,3.072-5.009,3.765-1.417.264-.429-.5,10.018-7.266,10.71-7.7.462-.628-.2-.2-8.766,6.21-9.1,6.441-.56-.066.33-.628,6.95-5.041,7.876-5.615c.692-.429.527-1.024-.4-.463s-5.042,3.171-5.733,3.6-.824.066.2-.793,4.679-4.162,5.47-4.79.956-.925.264-.859-.561.529-.857.595a2.257,2.257,0,0,0-1.318.495c-.527.463-5.767,4.426-6.459,5.021s-.758.33.065-.429,5.339-4.723,5.932-5.153-.33-.331.363-.925S72.1,22.027,72.6,21.7s.4-.793-.395-.231-5.734,4.327-6.986,5.582-1.879,1.816-2.406,2.312-1.153.231-.1-.693,3.23-3.2,4.383-4.261,3.592-3.435,4.383-4.029.659-1.123-.362-.231-2.9,1.85-3.922,2.576-6.031,5.053-6.788,5.714-1.318.5-.264-.4,4.646-4.328,5.272-4.822.3-1.057,1.22-1.784.56-1.222.857-1.652.164-.462-.363,0-5.009,3.964-6,4.955-2.406,2.213-2.834,2.642-.956.2-.2-.462.593-1.585,1.615-2.477,5.537-5.219,6.294-5.912.494-.793-.264-.231-2.373,1.916-2.7,1.717.495-1.354.791-1.717.4-.727-.362-.033-3.809,3.748-4.449,4.459c-.307.341-.176.759-.483.848s-.835.7-.923.55.308-.527.593-.814.418-.837-.087-.352-2.066,2.07-2.505,2.532-.527.242-.044-.286,3.383-3.612,5.536-5.548,3.581-3.524,4.2-4.074.132-.573-.285-.11-.615-.4-.813.176-.286.639-.615.682-.593.463-1.252,1.035-4.438,3.677-5.515,4.778-2.153,2.247-2.438,1.981.242-.814,1.978-2.466,4.745-4.8,5.536-5.593.242-.727.4-.9.3-.667-.615.11S57.8,18.47,57.2,19.14s-1.051.446-.159-.479,1.018-1.564.827-1.755c-.252-.252-.573-.128-.827.128-.925.927-3.6,3.637-4.553,4.69s-1.383.75,0-.861c1.178-1.372,3.884-4.212,4.584-4.882s.668-1.18.223-1.085.35-.67.859-1.053.191-.7-.223-.256-1.177,1.086-1.528,1.532-1.241.415-.764-.064.8-.829.287-.894a4.167,4.167,0,0,0-2.515,1.6c-.923,1.021-3.6,3.861-4.2,4.722s-1.273,1.691-1.464,1.628-.8-.383-.1-1.117,1.942-2.872,2.419-3.51-.191-.447.16-.926a5.152,5.152,0,0,0,.764-1.851c.159-.7-.191-.7-.446,0A19.248,19.248,0,0,1,48.7,17.736c-.509.7-.287.734-.6,1.149s-.859,1.117-.732.415-.127-1.4-.255-.543a7.659,7.659,0,0,1-.987,2.936c-.159.383-.35.16-.1-.351a24.373,24.373,0,0,0,1.465-4.914c.191-1.531.35-.51.478-1.116a27.841,27.841,0,0,0,.382-2.84c.032-.638-.446-.734-.446-.032a7.741,7.741,0,0,1-.382,2.489c-.159,0-.254-1.181-.351-2.106s-.381-1.117-.413.064a47.177,47.177,0,0,1-1.623,7.02c-.6,2.042-.86,2.457-1.019,2.521s-.064-1.6-.255-.734-.892,1.979-1.242,1.979-.223-.511.446-1.915.1-1.467.541-2.393a27.388,27.388,0,0,0,1.543-6.745l-.8.8c-.027.21-.052.408-.076.585-.319,2.33-.577,3.049-.924,3-.223-.032-.541-1.372-.636-.383A16.207,16.207,0,0,1,40.581,23.1c-.159.192-.191-.159-.509.447a21.158,21.158,0,0,1-2.1,2.84c-.446.447-.255-.064.159-.606a29.776,29.776,0,0,0,2.42-3.861c.191-.383-.1-.543-.255-.1a5.939,5.939,0,0,1-.988,1.563c-.286.288-.413-.1-.732.447a39.269,39.269,0,0,1-3.025,3.542c-.669.67-.605.159-.032-.638s1.433-2.265.223-2.042-1.847.1-1.306-1.021a1.419,1.419,0,0,0,.137-.454l-2.788,2.794c-.326.6-.654,1.172-.946,1.679-.6,1.053-.828,1.787-1.114,1.755-.2-.023-.421-.244-.107-1.263L27.71,30.1c-.038.511-.2.826-.536.537l-4.978,4.99a11,11,0,0,1,.272,4.384c-.478,2.521-1.369,4.563-3.184,5.585-.51.351-1.337.064-.637-.415s3.386-3.415,3.311-6.318a10.262,10.262,0,0,0-.386-2.61l-1.024,1.026a7.9,7.9,0,0,1-2.92,5.764c-.382.159-.7-.223-.159-.574A5.9,5.9,0,0,0,19.9,37.923l-1.153,1.155a3.266,3.266,0,0,1-.643,1.376c-1.015,1.172-1.432,1.032-1.058.329L2.2,55.664a21.2,21.2,0,0,0-.233,4.968l.457.458c-.017-.124-.032-.238-.043-.329-.075-.657.176-.7.4.309a3.871,3.871,0,0,0,.166.541l1.422,1.425a17.526,17.526,0,0,1-.753-6.766,5.975,5.975,0,0,1,1.933-3.832c.7-.7.615-.176.352.4a21.469,21.469,0,0,0-1.45,5.328,5.56,5.56,0,0,0,.878,3.567c.4.66.835.44.528-.485a11.092,11.092,0,0,1,.307-5.637c.7-1.938.967-1.585.747-.749a18.154,18.154,0,0,0,0,5.153c.264,1.673.722,1.1.659,0a10.06,10.06,0,0,1,.4-4.272A35.583,35.583,0,0,1,9.281,52.26c.572-.925.747-.22.439.793s-.835,3.259-1.011,4.316.44,2.29.659.749.132-3.083,1.1-4.36,2.2-2.774,1.89-1.542a20.878,20.878,0,0,0-.659,4.713c-.044,1.937.439,2.686.571,1.541a14.321,14.321,0,0,1,2.021-5.549c1.362-2.2,2.68-3.568,2.065-2.246s-.923,1.673-1.186,2.246.131.308-.264,1.629a18.767,18.767,0,0,0-.747,4.184c0,.925.308.836.659-.4a15.214,15.214,0,0,1,1.143-3.611,18.707,18.707,0,0,0,1.23-1.673c.615-.925,1.244-1.575.7-.264a17.391,17.391,0,0,0-.923,3.3,8.107,8.107,0,0,0-.263,2.554c.088.661.22.089.439-.616a46.689,46.689,0,0,1,1.846-4.889c.659-1.321,1.407-2.51,1.626-3.083s.615-1.058.527-.353A18.612,18.612,0,0,1,19.7,53.537a14.769,14.769,0,0,0-1.143,4.449c-.175,1.321.571,1.5.835-.264A10.729,10.729,0,0,1,21.1,52.7c1.143-1.585,1.494-2.731,1.406-1.718a12.805,12.805,0,0,1-1.23,3.567c-.572,1.277-.572,1.674-.22,1.366s.132.264-.439,1.541-.7,1.894-.088.881,2.021-3.567,2.548-4.712.791-.837.747.044a13.992,13.992,0,0,1-.659,2.6,9.475,9.475,0,0,0-.264,1.718c-.132,1.1.176.572.527-.088s.747-.441.835-1.145,1.362-3.435,1.669-5.637.659-1.585.616-.044a18.543,18.543,0,0,1-1.275,5.373c-.483,1.013.308.969-.352,3.391s-1.713,7.223-.483,10.57a26.993,26.993,0,0,0,3.471,6.3c.4.616.571.221.132-.7a30.986,30.986,0,0,1-1.8-5.99c-.132-1.366.088-1.013.352.044a54.978,54.978,0,0,0,1.933,5.682c.791,1.938,1.977,4.008,2.593,5.418A10.445,10.445,0,0,1,32,83.574c.132.661.527.661.4-.132a34.062,34.062,0,0,0-2.417-6.43c-1.186-2.334-2.153-4.4-1.626-4.1s.571-.088.439-.793,0-2.378.22-1.453.7,3.479,1.054,4.448.176-1.717.439-.617a61.417,61.417,0,0,0,2.11,6.211,6.887,6.887,0,0,1,.658,4.316c-.175.528-.472.658-.483,1.057a12.485,12.485,0,0,1-.773,4.664L33.5,92.233a6.725,6.725,0,0,0,.619-1.863c.093-.7.28-.885.558-.7a8.887,8.887,0,0,0,2.278.7c.837.141.977.187.651.746a34.238,34.238,0,0,0-1.858,3.37l3.987,4a26.484,26.484,0,0,1,2.846-5.875c2.929-4.613,5.207-4.38,7.252-3.774s11.2,4.008,12.367,4.52,1.022.885-.418.326-8.973-2.843-10.367-3.122-1.116.373-.186.559,1.255.7-.14.466-3.115-.373-4-.513-1.209,1.538.326,1.4a17.029,17.029,0,0,1,5.253.885c.7.279.6.327-.7.14s-3.765-1.4-5.345.745a25.9,25.9,0,0,0-4,7.142l21.882,21.931c-.168-.366-.33-.741-.475-1.134-.66-.924-.857-1.255-1.516-1.519a1.228,1.228,0,0,1-.659-1.585c.263-.463,0-1.057.066-1.454s-.462-.859.329-1.32,7.047-7.088,7.778-9.118c.329-.66.329-1.123,1.055-.858s2.9,1.123,4.613-.4c.593-.4,1.647-.4,1.779.4s.725,4.823,5.009,3.237c.593-.2.593-.33.857.132s.988,1.849,2.306,1.189c.462-.2.528-.528,1.055.132s5.932,7.729,7.711,9.248c.857.926,4.284,2.115,5.273,2.51s2.109.265,3.559-.792a8.09,8.09,0,0,0,7.513-3.105,24.542,24.542,0,0,0,4.153-7.728,2.444,2.444,0,0,0-.857-2.841,21.839,21.839,0,0,1-2.834-4.1c1.055-3.9,2.306-7.664,3.1-10.637s.527-4.558,1.055-4.624.988,1.189,1.318,3.766.593,6.937,2.571,8.588,4.086,2.642,5.338,5.946,5.406,14.467,6.262,17.573a3.124,3.124,0,0,1,.2,2.443c-.263,1.652-.395,2.709-.593,3.567a2.674,2.674,0,0,0,.988,2.71,13.847,13.847,0,0,0,8.24,4.491c4.877.661,9.293,1.586,12.457-4.228,1.846-1.387,5.009-3.369,5.8-7.2.659-3.369,1.516-5.483,2.307-5.681s2.966.4,3.625-2.379c.33-1.321.2-1.982.857-2.048s1.647.066,1.977.793a37.262,37.262,0,0,1,2.57,5.813,13.647,13.647,0,0,1,.4,2.664l15.557-15.592c-3.864-.061-3.03-.64-9.126.487-6.2,1.145-8.452,2.422-8.481,1.85-.1-1.971,9.657-3.116,10.678-3.116s.956.462,1.483.3c.923-1.123.725-2.246.363-4.559a23.156,23.156,0,0,0-4.35-10.7c-.646-.92-.4-.99.395-.594a17.908,17.908,0,0,1,5.01,4.954c.461.793.571.287.088-.33s-2.2-2.863-2.769-3.435-.087-.484.44-.044a13.786,13.786,0,0,1,4.262,5.506,29.978,29.978,0,0,1,1.451,7.883c-.352-1.233-.572-2.379-.791-2.907s-.044.309,0,1.013a14.291,14.291,0,0,0,.352,2.775c.176.308.219.264.7.308a3.816,3.816,0,0,1,.849.057l4.058-4.067c0-.051,0-.1-.007-.152-.462-6.475-5.076-10.769-7.317-11.826a64.46,64.46,0,0,0,9.755-1.255c.879-.2.835-.309.769.352a8.919,8.919,0,0,0,2.526,6.849c.051.051.1.1.15.143l1.293-1.3a23.909,23.909,0,0,1-1.838-3.141c-2.881-5.547.352-8.786,1.582-16.582.22-1.674.571-2.026.307.088s-2.064,11.364-2.24,11.98.22,1.013.307.221a25.171,25.171,0,0,1,1.67-5.594,62.412,62.412,0,0,0,2.417-10.394c0-.441.132-.529.176-.088a31.752,31.752,0,0,1-.132,4.052c-.132.528.088.617.219.044a37.682,37.682,0,0,0,.352-4.008c0-.7.264-1.013.351-.132a11.138,11.138,0,0,1-.879,6.034c-.308.573-.439,1.233-.176.661,4.438-6.695.967-14.226.264-16.163s.483-1.19-.132-2.467-1.274-3.7-1.714-4.976-.307-2.026.351-.617c.686,1.466,1.583,3.875,2.11,5.241s.527.309,1.054,1.277.747,1.409.528.352a12.555,12.555,0,0,0-1.274-3.611c-1.011-2.2.132-.573.659.264s.307,0-.307-.968-.352-1.1.439-.22a45.313,45.313,0,0,1,2.636,4.272c1.011,1.585.528.044-.4-1.629s.176-.969-.615-2.2.045-.748-.966-2.334-.132-1.145.527-.264a17.245,17.245,0,0,1,2.9,6.342c.307,1.63.659,1.542.615.264a9.441,9.441,0,0,0-1.363-4.668,25.353,25.353,0,0,1-1.977-4.316c-.132-.7.044-1.277.352-.309a9.635,9.635,0,0,0,1.582,2.819,17.514,17.514,0,0,1,2.768,5.593c.528,2.2.615.528.308-1.013A11.8,11.8,0,0,0,206,57.986c-.747-1.1-.221-.969.615-.088a13.6,13.6,0,0,1,2.153,3.655c.527,1.233.747,2.643,1.055,2.6s.132-2.026-.484-3.876a19.886,19.886,0,0,0-1.889-4.051c-.89-1.564-.264-1.3.4-.573.481.53,1.186,1.63,1.933,2.6a14.382,14.382,0,0,1,2.2,4.976c.571,2.246.483-1.365.088-2.906s0-1.894-.659-3.127-.264-1.321.4-.4a21.917,21.917,0,0,1,2.988,5.2c.615,1.938.836,1.189.615-.132a19.587,19.587,0,0,0-1.362-4.272c-.843-2.059.307-.88,1.45,1.277a8.68,8.68,0,0,1,1.186,5.2c-.175,1.278.484,1.321.747.177a8.95,8.95,0,0,0-.308-4.4c-.483-1.278-.44-1.674.572-.22s1.318,5.285,1.143,6.121-.045,1.365.351.4a9.461,9.461,0,0,0,.088-5.065,10.131,10.131,0,0,0-1.451-3.92c-.659-.925-.615-1.365-.088-.837a9.185,9.185,0,0,1,2.724,4.448,12.428,12.428,0,0,1-.483,7.091c-.4.661,0,.925.263.4s.659-.529.923-1.454a12.413,12.413,0,0,0,.527-7.443c-.659-2.444-.1-2.312.615-.176,1.143,4.008.914,8.868.351,10.57-.67,2.026-.175-2.246-.132-3.171s-.242-.815-.308-.055Z" transform="translate(0.143 0.328)" fill="#1a1919" fill-rule="evenodd"/>
                <path id="Fill-21" d="M3.7,51.723.209,55.711l59.929,52.576L3.7,51.723" transform="translate(-0.209 10.622)" fill="#d8232a" fill-rule="evenodd"/>
                <path id="Fill-22" d="M203.169,54.85l3.493-3.989L148.454.01l54.715,54.84" transform="translate(30.268 -0.01)" fill="#d8232a" fill-rule="evenodd"/>
              </g>
            </g>
          </g>
        </g>
      </g>
    </g>
  </g>
</svg>
